<svg id="visual" viewBox="0 0 1920 1080" width="1920" height="1080" xmlns="http://www.w3.org/2000/svg" xmlns:xlink="http://www.w3.org/1999/xlink" version="1.1"><g stroke-width="2" stroke-linejoin="bevel"><path d="M986.7 497L891.3 423L905.3 547Z" fill="#262626" stroke="#292929"></path><path d="M995.7 696L1120.7 458L986.7 497Z" fill="#2a2a2a" stroke="#292929"></path><path d="M986.7 497L985.7 244L891.3 423Z" fill="#2c2c2c" stroke="#292929"></path><path d="M905.3 547L995.7 696L986.7 497Z" fill="#282828" stroke="#292929"></path><path d="M1120.7 458L985.7 244L986.7 497Z" fill="#2f2f2f" stroke="#292929"></path><path d="M985.7 244L811.3 196L891.3 423Z" fill="#292929" stroke="#292929"></path><path d="M577 618L842.3 786L905.3 547Z" fill="#292929" stroke="#292929"></path><path d="M577 618L905.3 547L891.3 423Z" fill="#282828" stroke="#292929"></path><path d="M905.3 547L842.3 786L995.7 696Z" fill="#262626" stroke="#292929"></path><path d="M571 347L577 618L891.3 423Z" fill="#292929" stroke="#292929"></path><path d="M811.3 196L571 347L891.3 423Z" fill="#292929" stroke="#292929"></path><path d="M1379 363L1257 269L1120.7 458Z" fill="#2a2a2a" stroke="#292929"></path><path d="M1120.7 458L1257 269L985.7 244Z" fill="#272727" stroke="#292929"></path><path d="M985.7 244L804.3 0L811.3 196Z" fill="#252525" stroke="#292929"></path><path d="M461.7 468L543 648L577 618Z" fill="#2f2f2f" stroke="#292929"></path><path d="M577 618L732 907L842.3 786Z" fill="#252525" stroke="#292929"></path><path d="M577 162L523.7 346L571 347Z" fill="#2e2e2e" stroke="#292929"></path><path d="M571 347L461.7 468L577 618Z" fill="#2c2c2c" stroke="#292929"></path><path d="M1295 817L1339 653L995.7 696Z" fill="#2d2d2d" stroke="#292929"></path><path d="M995.7 696L1339 653L1120.7 458Z" fill="#2a2a2a" stroke="#292929"></path><path d="M1339 653L1374 505L1120.7 458Z" fill="#2b2b2b" stroke="#292929"></path><path d="M523.7 346L461.7 468L571 347Z" fill="#272727" stroke="#292929"></path><path d="M543 648L732 907L577 618Z" fill="#2b2b2b" stroke="#292929"></path><path d="M842.3 786L858.3 952L995.7 696Z" fill="#272727" stroke="#292929"></path><path d="M811.3 196L577 162L571 347Z" fill="#252525" stroke="#292929"></path><path d="M523.7 346L236.3 430L461.7 468Z" fill="#292929" stroke="#292929"></path><path d="M1374 505L1379 363L1120.7 458Z" fill="#262626" stroke="#292929"></path><path d="M732 907L858.3 952L842.3 786Z" fill="#2f2f2f" stroke="#292929"></path><path d="M1125.7 0L804.3 0L985.7 244Z" fill="#282828" stroke="#292929"></path><path d="M811.3 196L690 0L577 162Z" fill="#262626" stroke="#292929"></path><path d="M1144.7 970L1295 817L995.7 696Z" fill="#292929" stroke="#292929"></path><path d="M1349 0L1125.7 0L1257 269Z" fill="#2c2c2c" stroke="#292929"></path><path d="M1257 269L1125.7 0L985.7 244Z" fill="#252525" stroke="#292929"></path><path d="M1374 505L1447.3 428L1379 363Z" fill="#262626" stroke="#292929"></path><path d="M1448.3 84L1349 0L1257 269Z" fill="#2e2e2e" stroke="#292929"></path><path d="M1487.3 627L1447.3 428L1374 505Z" fill="#292929" stroke="#292929"></path><path d="M1487.3 627L1374 505L1339 653Z" fill="#2d2d2d" stroke="#292929"></path><path d="M461.7 468L420.7 653L543 648Z" fill="#2f2f2f" stroke="#292929"></path><path d="M543 648L433.7 922L732 907Z" fill="#2f2f2f" stroke="#292929"></path><path d="M804.3 0L690 0L811.3 196Z" fill="#2f2f2f" stroke="#292929"></path><path d="M858.3 952L1144.7 970L995.7 696Z" fill="#2b2b2b" stroke="#292929"></path><path d="M577 162L488.7 153L523.7 346Z" fill="#2a2a2a" stroke="#292929"></path><path d="M461.7 468L290.3 630L420.7 653Z" fill="#292929" stroke="#292929"></path><path d="M410.7 0L488.7 153L577 162Z" fill="#272727" stroke="#292929"></path><path d="M1295 817L1487.3 627L1339 653Z" fill="#292929" stroke="#292929"></path><path d="M1542.3 660L1487.3 627L1295 817Z" fill="#272727" stroke="#292929"></path><path d="M858.3 952L1003.7 1080L1144.7 970Z" fill="#2b2b2b" stroke="#292929"></path><path d="M805.3 1080L1003.7 1080L858.3 952Z" fill="#2c2c2c" stroke="#292929"></path><path d="M667 1080L805.3 1080L732 907Z" fill="#2d2d2d" stroke="#292929"></path><path d="M732 907L805.3 1080L858.3 952Z" fill="#2c2c2c" stroke="#292929"></path><path d="M1448.3 84L1257 269L1379 363Z" fill="#2b2b2b" stroke="#292929"></path><path d="M1238 1080L1295 817L1144.7 970Z" fill="#252525" stroke="#292929"></path><path d="M1631.7 822L1542.3 660L1295 817Z" fill="#282828" stroke="#292929"></path><path d="M1487.3 627L1542.3 660L1447.3 428Z" fill="#2b2b2b" stroke="#292929"></path><path d="M1662.7 320L1448.3 84L1379 363Z" fill="#292929" stroke="#292929"></path><path d="M236.3 430L290.3 630L461.7 468Z" fill="#2a2a2a" stroke="#292929"></path><path d="M433.7 922L667 1080L732 907Z" fill="#2d2d2d" stroke="#292929"></path><path d="M433.7 922L543 648L420.7 653Z" fill="#2d2d2d" stroke="#292929"></path><path d="M296.3 714L433.7 922L420.7 653Z" fill="#272727" stroke="#292929"></path><path d="M1662.7 320L1379 363L1447.3 428Z" fill="#2c2c2c" stroke="#292929"></path><path d="M290.3 630L296.3 714L420.7 653Z" fill="#2a2a2a" stroke="#292929"></path><path d="M1003.7 1080L1238 1080L1144.7 970Z" fill="#292929" stroke="#292929"></path><path d="M488.7 153L236.3 430L523.7 346Z" fill="#252525" stroke="#292929"></path><path d="M0 767L184.3 840L296.3 714Z" fill="#2a2a2a" stroke="#292929"></path><path d="M690 0L410.7 0L577 162Z" fill="#2b2b2b" stroke="#292929"></path><path d="M488.7 153L138.3 109L236.3 430Z" fill="#2c2c2c" stroke="#292929"></path><path d="M1542.3 660L1662.7 320L1447.3 428Z" fill="#2a2a2a" stroke="#292929"></path><path d="M1238 1080L1502.3 984L1295 817Z" fill="#2e2e2e" stroke="#292929"></path><path d="M1542.3 660L1773.7 612L1662.7 320Z" fill="#272727" stroke="#292929"></path><path d="M410.7 0L308.3 0L488.7 153Z" fill="#2b2b2b" stroke="#292929"></path><path d="M1659.7 0L1541.3 0L1448.3 84Z" fill="#272727" stroke="#292929"></path><path d="M1448.3 84L1541.3 0L1349 0Z" fill="#292929" stroke="#292929"></path><path d="M1502.3 984L1631.7 822L1295 817Z" fill="#292929" stroke="#292929"></path><path d="M1631.7 822L1656.7 782L1542.3 660Z" fill="#2d2d2d" stroke="#292929"></path><path d="M0 767L296.3 714L290.3 630Z" fill="#2c2c2c" stroke="#292929"></path><path d="M296.3 714L184.3 840L433.7 922Z" fill="#272727" stroke="#292929"></path><path d="M433.7 922L353.7 1080L667 1080Z" fill="#2e2e2e" stroke="#292929"></path><path d="M184.3 840L353.7 1080L433.7 922Z" fill="#282828" stroke="#292929"></path><path d="M1502.3 984L1711.7 1080L1631.7 822Z" fill="#2b2b2b" stroke="#292929"></path><path d="M1631.7 822L1920 838L1656.7 782Z" fill="#272727" stroke="#292929"></path><path d="M1238 1080L1542.3 1080L1502.3 984Z" fill="#2d2d2d" stroke="#292929"></path><path d="M1656.7 782L1773.7 612L1542.3 660Z" fill="#282828" stroke="#292929"></path><path d="M1662.7 320L1659.7 0L1448.3 84Z" fill="#292929" stroke="#292929"></path><path d="M1920 732L1773.7 612L1656.7 782Z" fill="#252525" stroke="#292929"></path><path d="M308.3 0L138.3 109L488.7 153Z" fill="#2d2d2d" stroke="#292929"></path><path d="M236.3 430L0 462L290.3 630Z" fill="#2a2a2a" stroke="#292929"></path><path d="M1778.7 111L1659.7 0L1662.7 320Z" fill="#2f2f2f" stroke="#292929"></path><path d="M0 382L0 462L236.3 430Z" fill="#262626" stroke="#292929"></path><path d="M138.3 109L0 382L236.3 430Z" fill="#2b2b2b" stroke="#292929"></path><path d="M1920 273L1778.7 111L1662.7 320Z" fill="#2c2c2c" stroke="#292929"></path><path d="M0 909L166.3 1080L184.3 840Z" fill="#262626" stroke="#292929"></path><path d="M184.3 840L166.3 1080L353.7 1080Z" fill="#2d2d2d" stroke="#292929"></path><path d="M0 462L0 767L290.3 630Z" fill="#252525" stroke="#292929"></path><path d="M0 0L0 141L138.3 109Z" fill="#282828" stroke="#292929"></path><path d="M138.3 109L0 141L0 382Z" fill="#2e2e2e" stroke="#292929"></path><path d="M1542.3 1080L1711.7 1080L1502.3 984Z" fill="#262626" stroke="#292929"></path><path d="M1920 732L1920 472L1773.7 612Z" fill="#2a2a2a" stroke="#292929"></path><path d="M1773.7 612L1920 472L1662.7 320Z" fill="#252525" stroke="#292929"></path><path d="M0 767L0 909L184.3 840Z" fill="#2b2b2b" stroke="#292929"></path><path d="M1920 472L1920 273L1662.7 320Z" fill="#282828" stroke="#292929"></path><path d="M1920 838L1920 732L1656.7 782Z" fill="#292929" stroke="#292929"></path><path d="M1920 273L1920 191L1778.7 111Z" fill="#272727" stroke="#292929"></path><path d="M1778.7 111L1920 0L1659.7 0Z" fill="#2e2e2e" stroke="#292929"></path><path d="M308.3 0L0 0L138.3 109Z" fill="#262626" stroke="#292929"></path><path d="M1711.7 1080L1920 838L1631.7 822Z" fill="#252525" stroke="#292929"></path><path d="M0 909L0 1080L166.3 1080Z" fill="#2a2a2a" stroke="#292929"></path><path d="M1920 191L1920 0L1778.7 111Z" fill="#252525" stroke="#292929"></path><path d="M1711.7 1080L1920 1080L1920 838Z" fill="#2a2a2a" stroke="#292929"></path></g></svg>